<?xml version="1.0" standalone="no"?>
<!DOCTYPE svg PUBLIC "-//W3C//DTD SVG 20010904//EN"
 "http://www.w3.org/TR/2001/REC-SVG-20010904/DTD/svg10.dtd">
<svg version="1.0" xmlns="http://www.w3.org/2000/svg"
 width="1200.000000pt" height="429.000000pt" viewBox="0 0 1200.000000 429.000000"
 preserveAspectRatio="xMidYMid meet">

<g transform="translate(0.000000,429.000000) scale(0.100000,-0.100000)"
fill="#000000" stroke="none">
<path d="M3355 3680 c-1007 -44 -1826 -279 -2244 -644 -216 -188 -320 -422
-291 -653 54 -422 481 -853 1207 -1217 128 -63 353 -161 487 -211 77 -28 87
-30 62 -12 -183 138 -345 294 -450 435 -36 48 -91 137 -121 197 -230 461 -45
897 505 1189 556 295 1443 414 2382 320 1063 -106 1957 -422 2896 -1025 84
-54 150 -93 146 -86 -33 57 -162 206 -278 322 -666 664 -1719 1147 -2856 1309
-460 66 -1013 95 -1445 76z"/>
<path d="M6370 3387 c3 -3 34 -17 70 -32 107 -44 387 -187 510 -260 504 -298
920 -671 1175 -1055 l67 -100 247 0 247 0 262 390 c144 214 262 392 262 395 0
3 -93 4 -206 3 l-206 -3 -168 -265 c-93 -145 -173 -266 -178 -268 -5 -1 -42
41 -83 95 -92 121 -283 320 -409 425 -191 161 -495 344 -735 444 -202 83 -467
162 -690 204 -60 12 -123 23 -140 27 -16 3 -28 3 -25 0z"/>
<path d="M3090 2760 c-386 -49 -655 -322 -720 -733 -8 -50 -11 -127 -7 -220
11 -274 96 -479 265 -639 156 -147 346 -218 582 -218 236 0 426 71 582 218
114 108 186 232 234 407 32 113 43 333 24 452 -59 368 -290 637 -612 713 -98
23 -256 32 -348 20z m321 -216 c243 -76 398 -313 416 -635 21 -381 -163 -684
-458 -754 -82 -19 -236 -19 -318 0 -206 49 -369 227 -432 470 -31 119 -33 320
-5 440 66 285 248 469 501 505 86 12 208 1 296 -26z"/>
<path d="M9350 1861 l0 -871 190 0 190 0 0 341 0 340 243 -3 c280 -3 310 -11
367 -89 42 -59 57 -118 75 -303 14 -143 25 -217 41 -268 5 -16 23 -18 194 -18
l188 0 -14 29 c-24 48 -42 156 -53 316 -12 162 -27 239 -65 313 -29 58 -99
125 -149 143 -21 7 -37 16 -37 19 0 3 21 16 46 28 149 73 237 251 221 448 -11
125 -58 225 -143 304 -62 58 -103 83 -184 112 -64 23 -69 23 -587 26 l-523 3
0 -870z m923 553 c55 -19 111 -77 126 -131 27 -97 6 -216 -48 -273 -59 -62
-104 -70 -383 -70 l-238 0 0 245 0 245 248 0 c200 0 257 -3 295 -16z"/>
<path d="M4638 2095 c-98 -25 -153 -61 -212 -140 -14 -18 -15 -14 -16 53 l0
72 -90 0 -90 0 0 -755 0 -755 90 0 90 0 0 280 c0 154 2 280 5 280 2 0 22 -19
44 -43 43 -47 122 -90 192 -106 73 -17 210 -13 278 8 157 49 267 172 317 352
14 47 18 99 18 199 -1 119 -4 145 -27 216 -55 166 -158 278 -302 328 -69 24
-224 30 -297 11z m255 -179 c115 -56 176 -171 185 -343 8 -170 -22 -276 -104
-363 -141 -151 -413 -110 -510 76 -42 79 -55 139 -55 248 0 159 38 265 123
341 66 59 113 75 218 72 70 -2 95 -7 143 -31z"/>
<path d="M5825 2103 c-161 -34 -293 -138 -359 -283 -42 -92 -57 -167 -57 -280
0 -291 142 -502 376 -559 69 -17 228 -15 300 4 148 39 261 153 303 308 l10 37
-86 0 -87 0 -28 -60 c-49 -105 -153 -158 -293 -147 -175 13 -299 137 -307 307
l-2 55 408 3 407 2 0 59 c0 97 -26 209 -70 297 -63 129 -178 225 -302 254 -42
9 -174 12 -213 3z m199 -174 c99 -36 182 -142 194 -245 l5 -44 -317 0 -317 0
7 38 c19 112 105 223 197 255 63 23 166 21 231 -4z"/>
<path d="M7005 2097 c-98 -26 -179 -84 -226 -161 l-19 -31 0 88 0 87 -85 0
-85 0 0 -545 0 -545 90 0 89 0 3 368 3 367 28 57 c54 110 153 168 286 168 114
-1 188 -50 216 -144 12 -40 15 -124 15 -433 l0 -383 85 0 86 0 -3 438 -3 437
-33 67 c-57 115 -148 167 -307 174 -55 2 -110 -1 -140 -9z"/>
<path d="M7905 1408 c-154 -221 -281 -405 -283 -410 -2 -4 92 -8 210 -8 l213
1 190 284 c105 156 192 284 195 284 3 1 89 -128 192 -284 l187 -285 226 0 226
0 -19 28 c-10 15 -139 199 -286 410 l-267 382 -252 0 -252 0 -280 -402z"/>
<path d="M10980 1175 c0 -22 4 -25 35 -25 l35 0 0 -80 c0 -79 0 -80 25 -80 25
0 25 1 25 80 l0 80 30 0 c25 0 30 4 30 25 0 25 -1 25 -90 25 -89 0 -90 0 -90
-25z"/>
<path d="M11190 1095 l0 -105 25 0 c24 0 25 2 26 78 l1 77 21 -77 c18 -66 25
-78 43 -78 18 0 24 12 42 73 l20 72 1 -72 c1 -71 2 -73 26 -73 l25 0 0 105 0
105 -38 0 -39 0 -13 -57 c-19 -91 -25 -93 -45 -14 l-17 71 -39 0 -39 0 0 -105z"/>
</g>
</svg>
